<?xml version="1.0" encoding="utf-8"?>
<!-- Generator: Adobe Illustrator 18.1.0, SVG Export Plug-In . SVG Version: 6.00 Build 0)  -->
<!DOCTYPE svg PUBLIC "-//W3C//DTD SVG 1.1//EN" "http://www.w3.org/Graphics/SVG/1.1/DTD/svg11.dtd">
<svg version="1.1" id="Layer_1" xmlns="http://www.w3.org/2000/svg" xmlns:xlink="http://www.w3.org/1999/xlink" x="0px" y="0px"
	 viewBox="0 0 30 30" enable-background="new 0 0 30 30" xml:space="preserve">
<g>
	<g>
		<rect x="14" y="6.4" fill="#FFFFFF" width="2" height="4.2"/>
		<path fill="#FFFFFF" d="M16.6,22.1c0,0.9-0.7,1.5-1.5,1.5c-0.9,0-1.5-0.7-1.5-1.5H16.6z"/>
	</g>
	<g>
		<path fill="#FFFFFF" d="M15,20.5h6.5l-1.9-7.4C19,10.4,17.9,8.7,15,8.7l0,0c-2.9,0-4,1.6-4.7,4.4l-1.9,7.4H15L15,20.5z"/>
		<path fill="#FFFFFF" d="M21.6,20.6H8.4l1.9-7.5C11,10.5,12,8.8,15,8.8l0,0c3,0,4.1,1.8,4.7,4.4L21.6,20.6z M8.5,20.4h12.9L19.6,13
			C19,10.5,18,8.8,15,8.8s-4,1.7-4.6,4.3L8.5,20.4z"/>
	</g>
</g>
</svg>
